<svg xmlns="http://www.w3.org/2000/svg" xmlns:xlink="http://www.w3.org/1999/xlink" width="1198" height="394" viewBox="0 0 1198 394">
  <defs>
    <filter id="Rectangle_5" x="938" y="145" width="260" height="210" filterUnits="userSpaceOnUse">
      <feOffset dy="10" input="SourceAlpha"/>
      <feGaussianBlur stdDeviation="5" result="blur"/>
      <feFlood flood-opacity="0.161"/>
      <feComposite operator="in" in2="blur"/>
      <feComposite in="SourceGraphic"/>
    </filter>
    <filter id="Rectangle_4" x="634" y="46" width="290" height="187" filterUnits="userSpaceOnUse">
      <feOffset dy="10" input="SourceAlpha"/>
      <feGaussianBlur stdDeviation="5" result="blur-2"/>
      <feFlood flood-opacity="0.161"/>
      <feComposite operator="in" in2="blur-2"/>
      <feComposite in="SourceGraphic"/>
    </filter>
    <filter id="Rectangle_3" x="350" y="186" width="240" height="208" filterUnits="userSpaceOnUse">
      <feOffset dy="10" input="SourceAlpha"/>
      <feGaussianBlur stdDeviation="5" result="blur-3"/>
      <feFlood flood-opacity="0.161"/>
      <feComposite operator="in" in2="blur-3"/>
      <feComposite in="SourceGraphic"/>
    </filter>
    <filter id="Rectangle_1" x="0" y="71" width="312" height="271" filterUnits="userSpaceOnUse">
      <feOffset dy="10" input="SourceAlpha"/>
      <feGaussianBlur stdDeviation="5" result="blur-4"/>
      <feFlood flood-opacity="0.161"/>
      <feComposite operator="in" in2="blur-4"/>
      <feComposite in="SourceGraphic"/>
    </filter>
  </defs>
  <g id="example" transform="translate(-115 -17)">
    <g id="example_4" transform="translate(-59 47.819)">
      <g transform="matrix(1, 0, 0, 1, 174, -30.82)" filter="url(#Rectangle_5)">
        <path id="Rectangle_5-2" data-name="Rectangle 5" d="M50,0H230a0,0,0,0,1,0,0V130a50,50,0,0,1-50,50H0a0,0,0,0,1,0,0V50A50,50,0,0,1,50,0Z" transform="translate(953 150)" fill="#005e87"/>
      </g>
      <text id="Scale" transform="translate(1160 100.181)" fill="#005e87" font-size="30" font-family="HelveticaNeue-Bold, Helvetica Neue" font-weight="700"><tspan x="0" y="0">SCALE</tspan></text>
      <text id="reached_in_12_months" data-name="reached in 12 months" transform="translate(1146 206.181)" fill="#fff" font-size="21" font-family="HelveticaNeue, Helvetica Neue" opacity="0.75"><tspan x="0" y="20">reached in 12 </tspan><tspan x="0" y="45">months</tspan></text>
      <text id="_400_" data-name="400+ " transform="translate(1217 190.181)" fill="#fff" font-size="56" font-family="HelveticaNeue-Bold, Helvetica Neue" font-weight="700"><tspan x="-71.288" y="0">400+ </tspan></text>
      <text id="learners" transform="translate(1275 179.181)" fill="#fff" font-size="21" font-family="HelveticaNeue, Helvetica Neue" opacity="0.75"><tspan x="0" y="20">learners</tspan></text>
      <path id="Rectangle_9" data-name="Rectangle 9" d="M10,0H29a0,0,0,0,1,0,0V28A10,10,0,0,1,19,38H0a0,0,0,0,1,0,0V10A10,10,0,0,1,10,0Z" transform="translate(1328 69.181)" fill="#007c8b" opacity="0.23"/>
    </g>
    <g id="example_3" transform="translate(21 -31)">
      <text id="Engagement" transform="translate(775 86)" fill="#007c8b" font-size="30" font-family="HelveticaNeue-Bold, Helvetica Neue" font-weight="700"><tspan x="0" y="0">ENGAGEMENT</tspan></text>
      <g transform="matrix(1, 0, 0, 1, 94, 48)" filter="url(#Rectangle_4)">
        <path id="Rectangle_4-2" data-name="Rectangle 4" d="M50,0H260a0,0,0,0,1,0,0V107a50,50,0,0,1-50,50H0a0,0,0,0,1,0,0V50A50,50,0,0,1,50,0Z" transform="translate(649 51)" fill="#007c8b"/>
      </g>
      <text id="_73_" data-name="73%" transform="translate(859 175)" fill="#fff" font-size="56" font-family="HelveticaNeue-Bold, Helvetica Neue" font-weight="700"><tspan x="-59.136" y="0">73%</tspan></text>
      <text id="Net_Promoter_score" data-name="Net Promoter score" transform="translate(781 193)" fill="#fff" font-size="21" font-family="HelveticaNeue, Helvetica Neue" opacity="0.75"><tspan x="0" y="20">Net Promoter score</tspan></text>
      <path id="Rectangle_7" data-name="Rectangle 7" d="M10,0H29a0,0,0,0,1,0,0V24A10,10,0,0,1,19,34H0a0,0,0,0,1,0,0V10A10,10,0,0,1,10,0Z" transform="translate(940 285)" fill="#519136" opacity="0.23"/>
      <path id="Rectangle_11" data-name="Rectangle 11" d="M10,0H29a0,0,0,0,1,0,0V24A10,10,0,0,1,19,34H0a0,0,0,0,1,0,0V10A10,10,0,0,1,10,0Z" transform="translate(1010 86)" fill="#007c8b" opacity="0.23"/>
      <path id="Rectangle_8" data-name="Rectangle 8" d="M10,0H29a0,0,0,0,1,0,0V24A10,10,0,0,1,19,34H0a0,0,0,0,1,0,0V10A10,10,0,0,1,10,0Z" transform="translate(974 268)" fill="#007c8b" opacity="0.23"/>
    </g>
    <g id="example_2" transform="translate(65 60)">
      <g transform="matrix(1, 0, 0, 1, 50, -43)" filter="url(#Rectangle_3)">
        <path id="Rectangle_3-2" data-name="Rectangle 3" d="M50,0H210a0,0,0,0,1,0,0V128a50,50,0,0,1-50,50H0a0,0,0,0,1,0,0V50A50,50,0,0,1,50,0Z" transform="translate(365 191)" fill="#007c8b"/>
      </g>
      <text id="Speed" transform="translate(453 128)" fill="#007c8b" font-size="30" font-family="HelveticaNeue-Bold, Helvetica Neue" font-weight="700"><tspan x="0" y="0">SPEED</tspan></text>
      <text id="Course_design_development_took_" data-name="Course design &amp; development took " transform="translate(437 175)" fill="#fff" font-size="21" font-family="HelveticaNeue, Helvetica Neue" opacity="0.75"><tspan x="0" y="20">Course design &amp; </tspan><tspan x="0" y="45">development took </tspan></text>
      <text id="_60_" data-name="60 " transform="translate(476 277)" fill="#fff" font-size="56" font-family="HelveticaNeue-Bold, Helvetica Neue" font-weight="700"><tspan x="-38.92" y="0">60 </tspan></text>
      <text id="days" transform="translate(507 258)" fill="#fff" font-size="21" font-family="HelveticaNeue, Helvetica Neue" opacity="0.75"><tspan x="0" y="20">days</tspan></text>
      <path id="Rectangle_10" data-name="Rectangle 10" d="M10,0H29a0,0,0,0,1,0,0V24A10,10,0,0,1,19,34H0a0,0,0,0,1,0,0V10A10,10,0,0,1,10,0Z" transform="translate(596 108)" fill="#00ada7" opacity="0.23"/>
      <path id="Rectangle_15" data-name="Rectangle 15" d="M10,0H29a0,0,0,0,1,0,0V24A10,10,0,0,1,19,34H0a0,0,0,0,1,0,0V10A10,10,0,0,1,10,0Z" transform="translate(379 165)" fill="#005e87" opacity="0.23"/>
    </g>
    <g id="example_1" transform="translate(26 -9)">
      <g transform="matrix(1, 0, 0, 1, 89, 26)" filter="url(#Rectangle_1)">
        <path id="Rectangle_1-2" data-name="Rectangle 1" d="M50,0H282a0,0,0,0,1,0,0V191a50,50,0,0,1-50,50H0a0,0,0,0,1,0,0V50A50,50,0,0,1,50,0Z" transform="translate(15 76)" fill="#005e87"/>
      </g>
      <text id="Reduction_in_cost_from_" data-name="Reduction in cost from " transform="translate(135 136)" fill="#fff" font-size="21" font-family="HelveticaNeue, Helvetica Neue" opacity="0.75"><tspan x="0" y="20">Reduction in cost from </tspan></text>
      <text id="Efficiency" transform="translate(146 79)" fill="#005e87" font-size="33" font-family="HelveticaNeue-Bold, Helvetica Neue" font-weight="700"><tspan x="0" y="0">EFFICIENCY</tspan></text>
      <text id="_10" data-name="$10" transform="translate(232 310)" fill="#fff" font-size="62" font-family="HelveticaNeue-Bold, Helvetica Neue" font-weight="700"><tspan x="-51.708" y="0">$10</tspan></text>
      <text id="_person" data-name="/person" transform="translate(285 287)" fill="#fff" font-size="21" font-family="HelveticaNeue, Helvetica Neue" opacity="0.75"><tspan x="0" y="20">/person</tspan></text>
      <path id="Rectangle_14" data-name="Rectangle 14" d="M10,0H32a0,0,0,0,1,0,0V32A10,10,0,0,1,22,42H0a0,0,0,0,1,0,0V10A10,10,0,0,1,10,0Z" transform="translate(360 26)" fill="#519136" opacity="0.23"/>
      <text id="_2_000" data-name="$2,000" transform="translate(135 205)" fill="#fff" font-size="44" font-family="HelveticaNeue-Bold, Helvetica Neue" font-weight="700"><tspan x="0" y="0">$2,000</tspan></text>
      <text id="_person-2" data-name="/person" transform="translate(274 204)" fill="#fff" font-size="21" font-family="HelveticaNeue, Helvetica Neue" opacity="0.75"><tspan x="0" y="0">/person</tspan></text>
      <text id="_to" data-name=" to" transform="translate(158 248)" fill="#fff" font-size="31" font-family="HelveticaNeue, Helvetica Neue" opacity="0.75"><tspan x="0" y="0" xml:space="preserve"> to</tspan></text>
    </g>
  </g>
</svg>
