<svg xmlns="http://www.w3.org/2000/svg" xmlns:xlink="http://www.w3.org/1999/xlink" width="341" height="255" viewBox="0 0 341 255">
  <defs>
    <filter id="Rectangle_4" x="0" y="46" width="320" height="187" filterUnits="userSpaceOnUse">
      <feOffset dy="10" input="SourceAlpha"/>
      <feGaussianBlur stdDeviation="5" result="blur"/>
      <feFlood flood-opacity="0.161"/>
      <feComposite operator="in" in2="blur"/>
      <feComposite in="SourceGraphic"/>
    </filter>
  </defs>
  <g id="example_3" transform="translate(-698 -48)">
    <text id="Engagement" transform="translate(737 296)" fill="#007c8b" font-size="30" font-family="HelveticaNeue-Bold, Helvetica Neue" font-weight="700"><tspan x="0" y="0">ENGAGEMENT</tspan></text>
    <g transform="matrix(1, 0, 0, 1, 698, 48)" filter="url(#Rectangle_4)">
      <path id="Rectangle_4-2" data-name="Rectangle 4" d="M50,0H290a0,0,0,0,1,0,0V107a50,50,0,0,1-50,50H0a0,0,0,0,1,0,0V50A50,50,0,0,1,50,0Z" transform="translate(15 51)" fill="#007c8b"/>
    </g>
    <text id="_73_" data-name="73%" transform="translate(859 175)" fill="#fff" font-size="56" font-family="HelveticaNeue-Bold, Helvetica Neue" font-weight="700"><tspan x="-59.136" y="0">73%</tspan></text>
    <text id="Net_Promoter_Score" data-name="Net Promoter Score" transform="translate(781 193)" fill="#fff" font-size="21" font-family="HelveticaNeue, Helvetica Neue" opacity="0.75"><tspan x="0" y="20">Net Promoter Score</tspan></text>
    <path id="Rectangle_7" data-name="Rectangle 7" d="M10,0H29a0,0,0,0,1,0,0V24A10,10,0,0,1,19,34H0a0,0,0,0,1,0,0V10A10,10,0,0,1,10,0Z" transform="translate(975 48)" fill="#519136" opacity="0.23"/>
    <path id="Rectangle_11" data-name="Rectangle 11" d="M10,0H29a0,0,0,0,1,0,0V24A10,10,0,0,1,19,34H0a0,0,0,0,1,0,0V10A10,10,0,0,1,10,0Z" transform="translate(1010 86)" fill="#007c8b" opacity="0.23"/>
    <path id="Rectangle_8" data-name="Rectangle 8" d="M10,0H29a0,0,0,0,1,0,0V24A10,10,0,0,1,19,34H0a0,0,0,0,1,0,0V10A10,10,0,0,1,10,0Z" transform="translate(716 48)" fill="#007c8b" opacity="0.23"/>
  </g>
</svg>
