<svg xmlns="http://www.w3.org/2000/svg" xmlns:xlink="http://www.w3.org/1999/xlink" width="261" height="253" viewBox="0 0 261 253">
  <defs>
    <filter id="Rectangle_3" x="21" y="45" width="240" height="208" filterUnits="userSpaceOnUse">
      <feOffset dy="10" input="SourceAlpha"/>
      <feGaussianBlur stdDeviation="5" result="blur"/>
      <feFlood flood-opacity="0.161"/>
      <feComposite operator="in" in2="blur"/>
      <feComposite in="SourceGraphic"/>
    </filter>
  </defs>
  <g id="example_2" transform="translate(-379 -98)">
    <g transform="matrix(1, 0, 0, 1, 379, 98)" filter="url(#Rectangle_3)">
      <path id="Rectangle_3-2" data-name="Rectangle 3" d="M50,0H210a0,0,0,0,1,0,0V128a50,50,0,0,1-50,50H0a0,0,0,0,1,0,0V50A50,50,0,0,1,50,0Z" transform="translate(36 50)" fill="#007c8b"/>
    </g>
    <text id="Speed" transform="translate(470 127)" fill="#007c8b" font-size="30" font-family="HelveticaNeue-Bold, Helvetica Neue" font-weight="700"><tspan x="0" y="0">SPEED</tspan></text>
    <text id="Course_design_development_took_" data-name="Course design &amp; development took " transform="translate(437 175)" fill="#fff" font-size="21" font-family="HelveticaNeue, Helvetica Neue" opacity="0.75"><tspan x="0" y="20">Course design &amp; </tspan><tspan x="0" y="45">development took </tspan></text>
    <text id="_60_" data-name="60 " transform="translate(476 277)" fill="#fff" font-size="56" font-family="HelveticaNeue-Bold, Helvetica Neue" font-weight="700"><tspan x="-38.92" y="0">60 </tspan></text>
    <text id="days" transform="translate(507 258)" fill="#fff" font-size="21" font-family="HelveticaNeue, Helvetica Neue" opacity="0.75"><tspan x="0" y="20">days</tspan></text>
    <path id="Rectangle_10" data-name="Rectangle 10" d="M10,0H29a0,0,0,0,1,0,0V24A10,10,0,0,1,19,34H0a0,0,0,0,1,0,0V10A10,10,0,0,1,10,0Z" transform="translate(596 108)" fill="#00ada7" opacity="0.23"/>
    <path id="Rectangle_15" data-name="Rectangle 15" d="M10,0H29a0,0,0,0,1,0,0V24A10,10,0,0,1,19,34H0a0,0,0,0,1,0,0V10A10,10,0,0,1,10,0Z" transform="translate(379 165)" fill="#005e87" opacity="0.23"/>
  </g>
</svg>
